<?xml version="1.0" encoding="utf-8"?>
<!-- Generator: Adobe Illustrator 16.0.0, SVG Export Plug-In . SVG Version: 6.00 Build 0)  -->
<!DOCTYPE svg PUBLIC "-//W3C//DTD SVG 1.1//EN" "http://www.w3.org/Graphics/SVG/1.1/DTD/svg11.dtd">
<svg version="1.1" id="Livello_1" xmlns="http://www.w3.org/2000/svg" xmlns:xlink="http://www.w3.org/1999/xlink" x="0px" y="0px"
	 width="3162.405px" height="1078px" viewBox="0 0 3162.405 1078" enable-background="new 0 0 3162.405 1078" xml:space="preserve">
<g>
	<path fill="#009933" d="M244.389,412H234v105h10.389c35.712,0,75.888-6.744,75.888-52.5S280.101,412,244.389,412z"/>
	<path fill="#009933" d="M626.172,542.454c-41.698,0-65.927,29.863-65.927,65.363c0,36.626,24.229,64.801,65.927,64.801
		s65.928-28.175,65.928-64.801C692.1,572.317,667.87,542.454,626.172,542.454z"/>
	<path fill="#009933" d="M0,0v1078h1078V0H0z M338.133,749L234.903,587H234v162H124V328h163.913
		c83.142,0,146.196,39.833,146.196,129.671c0,58.032-32.364,108.278-92.07,118.879L474.285,749H338.133z M791,752H689v-32h-1.409
		c-18.031,29-53.531,41.673-87.34,41.673c-85.649,0-145.942-71.573-145.942-154.405c0-82.833,59.306-153.838,144.956-153.838
		c33.245,0,67.734,12.39,89.734,37.747V463h102V752z M952,751H850V465h102V751z M900.937,411.899
		c-31.248,0-56.916-25.668-56.916-56.916c0-31.248,25.668-56.916,56.916-56.916s56.916,25.668,56.916,56.916
		C957.853,386.231,932.185,411.899,900.937,411.899z"/>
</g>
<g>
	<path fill="#E20018" d="M1403.015,668.231h38.763v89.065h-186.712v-89.065h41.722v-70.424l-96.759-182.865h-31.661v-88.474h164.815
		v88.474h-26.631l46.752,90.841l42.905-90.841h-26.631v-88.474h164.815v88.474h-30.773l-100.605,182.865V668.231z"/>
	<path fill="#F5B700" d="M1476.343,590.559c0-24.439,4.337-47.154,13.02-68.145c8.678-20.99,21.254-39.618,37.728-55.878
		c16.468-16.261,35.701-28.827,57.699-37.695c21.994-8.868,45.023-13.306,69.093-13.306c24.458,0,47.44,4.337,68.944,13.01
		c21.499,8.673,40.487,21.138,56.961,37.399c16.468,16.26,29.095,34.985,37.875,56.174c8.774,21.189,13.167,44.001,13.167,68.441
		c0,24.438-4.244,47.158-12.724,68.148c-8.484,20.99-21.11,39.618-37.875,55.879c-16.77,16.261-36.003,28.822-57.7,37.689
		c-10.852,4.143-21.896,7.292-33.141,9.465c-11.244,2.163-23.08,3.25-35.508,3.25c-24.661,0-47.69-4.291-69.093-12.857
		c-21.406-8.572-40.44-20.939-57.107-37.104c-16.673-16.163-29.396-34.935-38.172-56.322
		C1480.73,637.319,1476.343,614.604,1476.343,590.559z M1576.356,590.559c0,22.451,7.592,41.749,22.784,57.894
		c15.188,16.146,33.437,24.218,54.741,24.218c21.105,0,39.253-8.021,54.445-24.069c15.188-16.048,22.784-35.397,22.784-58.042
		c0-23.039-7.499-42.633-22.488-58.778c-14.994-16.145-33.242-24.222-54.741-24.222c-21.11,0-39.309,8.077-54.593,24.222
		C1583.999,547.926,1576.356,567.52,1576.356,590.559z"/>
	<path fill="#009933" d="M2039.376,511.997h-26.039v-87.29h152.092v87.29h-28.998l-101.197,262.758h30.182v87.882h-155.051v-87.882
		h30.478l6.51-15.683l-92.616-247.075h-29.294v-87.29h154.163v87.29h-26.039l42.313,130.195L2039.376,511.997z"/>
	<path fill="#00CFFF" d="M2152.101,590.559c0-24.439,4.337-47.154,13.02-68.145c8.678-20.99,21.254-39.618,37.728-55.878
		c16.468-16.261,35.701-28.827,57.699-37.695c21.994-8.868,45.023-13.306,69.093-13.306c24.458,0,47.44,4.337,68.944,13.01
		c21.499,8.673,40.487,21.138,56.961,37.399c16.468,16.26,29.095,34.985,37.875,56.174c8.774,21.189,13.167,44.001,13.167,68.441
		c0,24.438-4.244,47.158-12.724,68.148c-8.484,20.99-21.11,39.618-37.875,55.879c-16.77,16.261-36.003,28.822-57.7,37.689
		c-10.852,4.143-21.896,7.292-33.141,9.465c-11.244,2.163-23.08,3.25-35.508,3.25c-24.661,0-47.69-4.291-69.093-12.857
		c-21.406-8.572-40.44-20.939-57.107-37.104c-16.673-16.163-29.396-34.935-38.172-56.322
		C2156.488,637.319,2152.101,614.604,2152.101,590.559z M2252.114,590.559c0,22.451,7.592,41.749,22.784,57.894
		c15.188,16.146,33.437,24.218,54.741,24.218c21.105,0,39.253-8.021,54.445-24.069c15.188-16.048,22.784-35.397,22.784-58.042
		c0-23.039-7.499-42.633-22.488-58.778c-14.994-16.145-33.242-24.222-54.741-24.222c-21.11,0-39.309,8.077-54.593,24.222
		C2259.757,547.926,2252.114,567.52,2252.114,590.559z"/>
</g>
<g>
	<polygon fill="#009933" points="2792.18,569.973 2689.18,569.973 2689.18,460.973 2611.18,460.973 2611.18,758.973 
		2689.18,758.973 2689.18,635.973 2792.18,635.973 2792.18,758.973 2869.18,758.973 2869.18,460.973 2792.18,460.973 	"/>
	<path fill="#009933" d="M3016.01,460.973h-128.83v298h128.83c90.766,0,146.396-52.378,146.396-150.255
		C3162.407,516.28,3107.611,460.973,3016.01,460.973z M3002.208,691.973h-37.028v-164h37.028c53.119,0,82.398,25.951,82.398,80.326
		C3084.607,668.112,3061.184,690.973,3002.208,691.973z"/>
</g>
</svg>
